<?xml version="1.0" standalone="no"?>
<!DOCTYPE svg PUBLIC "-//W3C//DTD SVG 20010904//EN"
 "http://www.w3.org/TR/2001/REC-SVG-20010904/DTD/svg10.dtd">
<svg version="1.0" xmlns="http://www.w3.org/2000/svg"
 width="512.000000pt" height="512.000000pt" viewBox="0 0 512.000000 512.000000"
 preserveAspectRatio="xMidYMid meet">
<metadata>
Created by potrace 1.14, written by Peter Selinger 2001-2017
</metadata>
<g transform="translate(0.000000,512.000000) scale(0.100000,-0.100000)"
fill="#000000" stroke="none">
<path d="M4855 5084 c-126 -18 -250 -36 -275 -39 -25 -3 -76 -10 -115 -16 -38
-5 -86 -12 -105 -14 -19 -3 -66 -9 -105 -15 -38 -5 -90 -12 -115 -15 -25 -4
-61 -8 -80 -11 -19 -2 -64 -9 -100 -14 -78 -11 -119 -17 -185 -25 -27 -4 -77
-10 -110 -15 -97 -15 -333 -48 -470 -65 -22 -3 -51 -8 -65 -10 -14 -2 -47 -7
-75 -10 -27 -3 -77 -10 -110 -15 -33 -5 -85 -12 -115 -15 -30 -4 -57 -8 -60
-10 -3 -1 -36 -6 -75 -9 -38 -4 -77 -9 -85 -11 -16 -4 -47 -9 -145 -21 -33 -4
-63 -9 -67 -10 -5 -1 -22 -2 -38 -3 l-30 -1 2 -1032 3 -1031 1390 0 1390 0 3
1221 c2 1160 1 1222 -15 1221 -10 -1 -121 -16 -248 -35z"/>
<path d="M2014 4693 c-5 -1 -76 -11 -159 -22 -142 -19 -684 -94 -770 -106 -22
-3 -53 -8 -70 -10 -16 -2 -68 -9 -115 -16 -47 -6 -95 -13 -107 -14 -13 -2 -40
-6 -60 -9 -21 -3 -56 -8 -78 -11 -22 -3 -119 -16 -215 -29 -96 -14 -199 -27
-229 -31 -30 -4 -62 -8 -71 -10 -9 -2 -41 -6 -71 -10 -30 -4 -57 -9 -61 -12
-12 -7 -10 -1733 2 -1734 6 0 469 -1 1030 -1 561 0 1029 1 1039 1 19 1 19 22
19 1011 l0 1011 -37 -2 c-20 -2 -41 -4 -47 -6z"/>
<path d="M0 1560 l0 -857 63 -8 c34 -4 69 -9 77 -10 8 -1 38 -5 65 -9 46 -6
92 -12 155 -21 14 -2 63 -9 110 -15 47 -6 96 -13 110 -15 14 -2 43 -6 65 -9
22 -3 58 -8 80 -11 137 -19 175 -25 220 -30 28 -3 59 -8 70 -10 11 -2 43 -7
70 -10 28 -4 61 -8 75 -11 34 -5 164 -22 220 -29 25 -3 56 -7 70 -10 14 -2 45
-7 70 -10 25 -3 72 -10 105 -15 33 -5 83 -12 110 -15 28 -3 61 -7 75 -10 14
-2 50 -7 80 -11 30 -4 64 -8 75 -10 11 -1 45 -6 77 -10 l56 -7 0 1001 0 1000
-1049 0 -1049 0 0 -858z"/>
<path d="M2330 1399 l0 -1019 33 -1 c17 0 41 -2 52 -4 11 -2 43 -7 70 -11 28
-3 52 -7 55 -9 3 -2 36 -6 75 -10 38 -3 72 -8 75 -10 3 -1 30 -6 61 -9 31 -4
65 -8 75 -10 26 -5 100 -15 159 -21 28 -3 61 -8 75 -10 39 -7 81 -13 130 -20
44 -5 101 -13 150 -20 14 -2 63 -9 110 -15 47 -6 96 -13 110 -15 24 -4 173
-24 215 -30 43 -5 131 -17 146 -20 9 -2 40 -6 70 -10 30 -3 65 -8 79 -10 14
-3 45 -7 70 -10 25 -3 72 -10 105 -15 33 -5 83 -12 110 -15 28 -3 61 -8 75
-10 14 -2 45 -7 70 -10 25 -3 77 -10 115 -16 39 -5 84 -11 100 -13 17 -2 53
-7 80 -11 54 -7 59 -8 180 -25 44 -6 95 -13 113 -16 l32 -5 0 1210 0 1210
-1395 0 -1395 -1 0 -1019z"/>
</g>
</svg>
